<?xml version="1.0" encoding="UTF-8" standalone="no"?>
<!-- Created with Inkscape (http://www.inkscape.org/) -->

<svg
   version="1.1"
   id="svg2"
   width="347.56"
   height="302.85333"
   viewBox="0 0 347.56 302.85333"
   sodipodi:docname="eagle-head-vector-image.eps"
   xmlns:inkscape="http://www.inkscape.org/namespaces/inkscape"
   xmlns:sodipodi="http://sodipodi.sourceforge.net/DTD/sodipodi-0.dtd"
   xmlns="http://www.w3.org/2000/svg"
   xmlns:svg="http://www.w3.org/2000/svg">
  <defs
     id="defs6" />
  <sodipodi:namedview
     id="namedview4"
     pagecolor="#ffffff"
     bordercolor="#000000"
     borderopacity="0.25"
     inkscape:showpageshadow="2"
     inkscape:pageopacity="0.0"
     inkscape:pagecheckerboard="0"
     inkscape:deskcolor="#d1d1d1" />
  <g
     id="g8"
     inkscape:groupmode="layer"
     inkscape:label="ink_ext_XXXXXX"
     transform="matrix(1.3333333,0,0,-1.3333333,0,302.85333)">
    <g
       id="g10"
       transform="scale(0.1)">
      <path
         d="m 239.434,655.281 c -247.63713,241.77 -326.6684,512.529 -34.77,847.039 -20.453,96.1 69.082,147.2 233.887,167.52 -163.828,-9.55 -199.367,47.61 -47.406,202.28 583.921,465.56 1215.985,459.51 1668.815,225.98"
         style="fill:none;stroke:#231f20;stroke-width:34.9994;stroke-linecap:butt;stroke-linejoin:miter;stroke-miterlimit:2.61313;stroke-dasharray:none;stroke-opacity:1"
         id="path12" />
      <path
         d="m 236.441,659 c -101.191,209.91 -20.66,343.7 135,478.35 266.821,206.42 547.293,249.09 828.919,277.89 37.7,3.26 52.02,8.13 42.97,14.58 -22.59,16.12 -57.12,11.36 -83.01,10.64 -77.78,-2.18 -166.882,-8.65 -272.468,-20.43 -41.676,-4.65 -78.032,-8.89 -120.039,-3.65 -26.872,3.35 -54.731,8.95 -79.852,16.35 -24.668,7.26 -46.438,19.1 -72.492,21.03 -15.621,1.17 -18.535,-3.51 -8.746,-14.03 13.25,-14.22 32.625,-22.05 33.457,-44.48 1.121,-29.84 -34.094,-60.3 -71.414,-50.91 -36.996,9.32 -23.793,27.05 -27.403,-19.15 -2.562,-32.74 -15.91,-59.27 -41.242,-78.9 -21.051,-16.3 -47.683,-28.16 -70.308,-43.3 -56.239,-37.65 -111.821,-73.52 -194.868,-181.7 C 210.063,988.879 192.473,961.102 181.469,921.02 157.887,835.07 176.207,747.738 236.441,659"
         style="fill:#231f20;fill-opacity:1;fill-rule:evenodd;stroke:none"
         id="path14" />
      <path
         d="m 454.863,1508.09 c 24.985,-11.04 47.66,-25.05 68.028,-42.03 13.843,-11.54 23.457,-20.81 30.199,-37.71 6.695,-16.8 -0.75,-16.82 -22.36,-0.06 -19.976,14.59 -41.511,26.7 -65.105,38.38 -20.098,9.94 -38.75,16.66 -60.187,23.08 -28.84,9.5 -26.833,26.15 -7.739,30.8 19.625,4.77 39.614,-4.7 57.164,-12.46"
         style="fill:#231f20;fill-opacity:1;fill-rule:evenodd;stroke:none"
         id="path16" />
      <path
         d="m 337.727,1037.54 c 188.109,171.55 421.851,259.03 669.553,320.79 33.66,8.39 66.85,17.53 101.97,15.58 20.82,-1.16 7.36,-9.35 -43.09,-23.41 -254.898,-71.16 -506.144,-186.15 -748.402,-408.93 -46.289,-43.8 -67.797,-38.468 -50.028,6.129 15.54,39.012 39.489,62.011 69.997,89.841"
         style="fill:#231f20;fill-opacity:1;fill-rule:evenodd;stroke:none"
         id="path18" />
      <path
         d="m 365.766,1595.18 c 25.148,20.24 54.832,32.73 86.57,40.36 29.555,7.1 62.078,4.35 90.242,15.37 35.176,13.75 66.461,47.57 93.754,102.05 24.035,39.31 54.141,61.67 88.176,73.05 12.402,4.14 28.672,9.23 41.879,6.18 6.316,-1.46 1.054,-5.55 -15.789,-12.25 -24.719,-8.8 -49.52,-19.31 -74.895,-40.12 -11.695,-9.6 -20.238,-18.94 -25.371,-33.61 -4.629,-13.21 0.215,-19.21 12.758,-19.35 15.558,-0.16 29.43,6.45 42.988,13.36 52.18,26.62 114.699,79.56 180.758,141.49 14.312,13.43 28.269,26.5 43.766,38.61 63.695,49.75 127.398,80.14 191.098,100.07 15.03,4.7 30.14,9.52 45.96,10.48 11.3,0.68 12.71,-2.11 4.37,-7.02 -12.5,-7.36 -26.66,-10.78 -40.41,-14.92 -70.43,-21.21 -133.866,-47.29 -173.343,-90.03 -8.261,-8.95 -22.562,-22.1 -28.644,-32.03 -3.879,-6.34 1.32,-9.25 17.969,-7.83 117.838,8.89 236.908,5.03 353.978,22 26.76,3.87 53.01,13.03 79.63,3.7 12.68,-4.44 12.97,-11.2 -2.03,-17.26 -22.66,-9.13 -47.68,-8.88 -71.66,-10.41 -165.35,-10.63 -311.727,-25.38 -387.758,-55.43 -12.707,-5.01 -24.899,-11.24 -37.199,-17.34 -22.071,-10.96 -29.731,-5.78 -13.559,-25.45 49.094,-59.69 7.926,-123.45 -45.734,-137.15 -19.047,-4.87 -70.235,-2.62 -74,24.62 -1.633,11.77 32.515,5.31 41.488,25.03 15.726,34.59 -39.723,62.13 -48.828,7.23 l -31.731,-10.42 c -28.66,-9.41 -19.949,-13.48 -2.054,-36.91 31.871,-41.73 72.929,-58.8 119.457,-61.16 13.519,-0.68 16.89,3.03 28.804,5.91 5.817,1.41 7.672,-1.19 5.367,-5.17 -8.25,-14.29 -57.246,-20.65 -75.621,-26.97 l -26.964,-9.26 c -22.903,-7.88 -29.946,-6.87 -4.809,-21.41 47.051,-27.23 110.184,-22.19 186.922,10.15 88.899,34.58 224.019,116.51 325.579,144.18 27.43,7.47 55.33,9.89 83.47,13.2 23.3,2.74 59.18,13.21 81.84,4.82 9.04,-3.35 5.02,-9.25 -20.43,-12.47 -94.26,-3.6 -195.75,-32.13 -308.91,-100.87 -111.135,-64.05 -198.385,-97.49 -267.58,-107.81 -32.461,-4.84 -57.758,-4.84 -88.551,5.9 -11.824,4.12 -23.539,9.05 -35.141,14.77 -38.359,18.92 -30.765,22.39 -70.09,8.6 -25.097,-8.8 -49.304,-10.41 -71.797,1.7 -21.718,11.68 -30.558,23.31 -55.843,31.2 -46.813,14.6 -91.645,24.92 -134.828,24.21 -37.567,-0.63 -52.766,-7.41 -13.254,24.41"
         style="fill:#231f20;fill-opacity:1;fill-rule:evenodd;stroke:none"
         id="path20" />
      <path
         d="m 1494.2,2090.2 c 450.8,-11.91 762.64,-132.08 935.55,-358.73 -241.21,192.64 -572.15,292.48 -935.55,358.73"
         style="fill:#231f20;fill-opacity:1;fill-rule:evenodd;stroke:none"
         id="path22" />
      <path
         d="m 1699.65,1906.89 c 529.92,-94.82 832.28,-332.92 907.09,-714.31 -104.9,302.96 -435.26,545.75 -907.09,714.31"
         style="fill:#231f20;fill-opacity:1;fill-rule:evenodd;stroke:none"
         id="path24" />
      <path
         d="m 1216.15,1509.97 c 87.59,4.94 202.85,48.64 322.09,97.89 114.08,42.94 223.46,73.46 314.59,80.66 20.28,1.6 34.05,1.06 53.21,-6.93 26.6,-11.11 19.04,-20.98 -10.94,-14.24 -15.3,3.44 -24.03,4.75 -40.08,3.48 -83.98,-6.66 -166.66,-29.23 -252.75,-63.37 -58.93,-23.35 -113.68,-43.8 -163.31,-81.24 -32.08,-24.22 -35.5,-24.74 4.95,-20.2 256.73,28.84 575.37,57.61 814.31,-68.68 -253.65,73.84 -641.95,78.21 -899.74,-3.78 -66.58,-21.17 -31.88,-13.9 -39.91,20.67 -1.37,5.9 -7.27,10.22 -15.97,13.72 -26.49,10.68 -51.92,8.87 -79.87,8.87 -18.94,0 -35.09,-2.77 -48.03,14.46 -7.96,10.6 5.85,16.83 41.45,18.69"
         style="fill:#231f20;fill-opacity:1;fill-rule:evenodd;stroke:none"
         id="path26" />
      <path
         d="m 562.488,1094.72 c 207.223,144.62 512.602,215.97 814.642,278.98 112.3,23.41 220.49,42.21 335.8,45.77 422.85,13.08 689.28,-148.24 815.33,-384.31 36.82,-68.949 46.7,-120.738 37.13,-199.488 -9.69,-79.813 -38.87,-139.063 -72.42,-177.231 53.38,225.18 -46.58,415.639 -327.48,565.119 -95.59,50.87 -185.14,81.08 -291.92,99.27 -224.47,38.24 -474.72,27.05 -749.12,-30.38 -197.973,-41.44 -374.587,-123.58 -561.962,-197.73"
         style="fill:#231f20;fill-opacity:1;fill-rule:evenodd;stroke:none"
         id="path28" />
      <path
         d="m 710.367,1110.4 c 564.693,177.65 1055.333,226.68 1419.613,6.47 95.14,-57.51 163.36,-124.761 219.28,-221.948 91.29,-158.621 103.63,-349.801 -137.6,-546.231 113.01,170.848 162.4,390.297 -167.36,663.969 -85.71,71.13 -168.38,129.02 -276.62,159.53 -275.96,77.77 -677.5,23.64 -1057.313,-61.79"
         style="fill:#231f20;fill-opacity:1;fill-rule:evenodd;stroke:none"
         id="path30" />
      <path
         d="m 817.828,1097.77 c 581.662,75.05 1095.332,36.64 1275.742,-360.11 35.43,-77.941 52.58,-156.789 50.2,-242.648 C 2138.69,311.898 2037.07,162.07 1775.51,67.3984 1930.1,169.238 1997.66,413.449 1904.49,637.84 1869.47,722.199 1810.72,802.109 1745.51,866.148 1520.86,1086.7 1176.3,1103.11 817.828,1097.77"
         style="fill:#231f20;fill-opacity:1;fill-rule:evenodd;stroke:none"
         id="path32" />
      <path
         d="M 1415.2,914.449 C 1785.23,761.25 1898.5,123.121 1465.76,29.4805 1759,188.68 1730.27,685.77 1415.2,914.449"
         style="fill:#231f20;fill-opacity:1;fill-rule:evenodd;stroke:none"
         id="path34" />
      <path
         d="M 1239.36,952.461 C 1387.13,852.32 1499.53,702.09 1478.4,364.5 1414.02,130.77 1308.79,-13.6719 1130.73,1.03125 1312.92,54.8711 1406.68,226.59 1412.03,516.199 c -29.06,203.731 -84.2,356.153 -193.15,426.43 -166.67,107.521 -118.06,103.731 20.48,9.832"
         style="fill:#231f20;fill-opacity:1;fill-rule:evenodd;stroke:none"
         id="path36" />
      <path
         d="M 903.164,1047.19 C 1083.59,966.59 1219.21,783.211 1200.31,511.328 1194.05,421.211 1179.95,354.621 1121.85,284.172 1050.17,197.25 961.238,170.09 849.434,222.27 c 176.526,-26.329 279.496,82.468 274.976,388.761 -6.97,223.68 -92.17,355.649 -221.246,436.159"
         style="fill:#231f20;fill-opacity:1;fill-rule:evenodd;stroke:none"
         id="path38" />
      <path
         d="m 1015.48,1794.43 c 131.44,-2.85 360.11,75.66 495.93,15.53 -97.13,9.91 -195.78,12.92 -303.03,-23.3 -52.43,-17.7 -93.58,-42.26 -138.75,-72.93 l -70.884,-48.12 c -49.605,-29.02 -59.641,-52.31 -31.742,3.66 12.84,25.76 13.48,55.43 5.113,83.46 -18.39,61.65 -23.637,43.15 43.363,41.7"
         style="fill:#231f20;fill-opacity:1;fill-rule:evenodd;stroke:none"
         id="path40" />
    </g>
  </g>
</svg>
